<?xml version="1.0"?>
<svg version="1.1" xmlns="http://www.w3.org/2000/svg" viewBox="0 0 400 100" role="img" aria-label="The University of Iowa University Libraries Main Library"><path fill="#000000" d="M172.51,13.23h-1.73V25.69h1.73v4.54H163V25.69h1.73V13.23H163V8.77h9.51Z"/><path fill="#000000" d="M185.29,30.23H178.4c-2.5,0-4.14-1.64-4.14-4.33V13.09a4,4,0,0,1,3.66-4.31,3.85,3.85,0,0,1,.48,0h6.89c2.5,0,4.13,1.67,4.13,4.32V25.87a4,4,0,0,1-3.62,4.35A4.34,4.34,0,0,1,185.29,30.23Zm-2-4.51V13.23h-3V25.69Z"/><path fill="#000000" d="M192.13,13.24h-1.52V8.78h9v4.46h-1.7l1.55,10.31,3.21-14.79h4.57l3.43,14.79,1.25-10.31h-1.57V8.78h8.89v4.46h-1.48l-2.69,17h-7.25L205,17.58l-2.88,12.66h-7Z"/><path fill="#000000" d="M217.67,25.69h1.63l3.25-16.92h9.72l3.21,16.92H237v4.54h-7.26L229.06,25h-3.61l-.65,5.22h-7.13Zm11-4.63-1.39-8.65-1.42,8.65Z"/><rect x="159" y="35.16" width="82" height="0.733" style="fill:#000000"/><path fill="#000000" d="M170.203125,41.501875C170.203125,41.501875,170.203125,45.24796875,170.203125,45.24796875C170.203125,45.87036328125,170.00846484375,46.36255078125,169.619140625,46.72453125C169.22981640625,47.08651171875,168.69791796875,47.2675,168.0234375,47.2675C167.359375,47.2675,166.83203125,47.09171875,166.44140625,46.74015625C166.05078125,46.38859375,165.8515625,45.90551953125,165.84375,45.2909375C165.84375,45.2909375,165.84375,41.501875,165.84375,41.501875C165.84375,41.501875,167.015625,41.501875,167.015625,41.501875C167.015625,41.501875,167.015625,45.25578125,167.015625,45.25578125C167.015625,45.62817578125,167.10481640625,45.89966015625,167.283203125,46.070234375C167.46158984375,46.24080859375,167.70833203125,46.32609375,168.0234375,46.32609375C168.68229296875,46.32609375,169.01692578125,45.97973828125,169.02734375,45.28703125C169.02734375,45.28703125,169.02734375,41.501875,169.02734375,41.501875C169.02734375,41.501875,170.203125,41.501875,170.203125,41.501875Z M172.12890625,42.9628125C172.12890625,42.9628125,172.1640625,43.45109375,172.1640625,43.45109375C172.46614453125,43.07348828125,172.87109375,42.8846875,173.37890625,42.8846875C173.82682421875,42.8846875,174.16015625,43.01619921875,174.37890625,43.27921875C174.59765625,43.54223828125,174.70963671875,43.93546875,174.71484375,44.45890625C174.71484375,44.45890625,174.71484375,47.189375,174.71484375,47.189375C174.71484375,47.189375,173.5859375,47.189375,173.5859375,47.189375C173.5859375,47.189375,173.5859375,44.48625,173.5859375,44.48625C173.5859375,44.24666796875,173.53385546875,44.07283984375,173.4296875,43.964765625C173.32551953125,43.85669140625,173.15234375,43.80265625,172.91015625,43.80265625C172.59244921875,43.80265625,172.35416796875,43.93807421875,172.1953125,44.20890625C172.1953125,44.20890625,172.1953125,47.189375,172.1953125,47.189375C172.1953125,47.189375,171.06640625,47.189375,171.06640625,47.189375C171.06640625,47.189375,171.06640625,42.9628125,171.06640625,42.9628125C171.06640625,42.9628125,172.12890625,42.9628125,172.12890625,42.9628125Z M176.76171875,47.189375C176.76171875,47.189375,175.62890625,47.189375,175.62890625,47.189375C175.62890625,47.189375,175.62890625,42.9628125,175.62890625,42.9628125C175.62890625,42.9628125,176.76171875,42.9628125,176.76171875,42.9628125C176.76171875,42.9628125,176.76171875,47.189375,176.76171875,47.189375Z M175.5625,41.8690625C175.5625,41.69979296875,175.619140625,41.56046875,175.732421875,41.45109375C175.845703125,41.34171875,176,41.28703125,176.1953125,41.28703125C176.38801953125,41.28703125,176.54166796875,41.34171875,176.65625,41.45109375C176.77083203125,41.56046875,176.828125,41.69979296875,176.828125,41.8690625C176.828125,42.0409375,176.77018359375,42.1815625,176.654296875,42.2909375C176.53841015625,42.4003125,176.38541796875,42.455,176.1953125,42.455C176.00520703125,42.455,175.85221484375,42.4003125,175.736328125,42.2909375C175.62044140625,42.1815625,175.5625,42.0409375,175.5625,41.8690625Z M179.2734375,45.81046875C179.2734375,45.81046875,180.05859375,42.9628125,180.05859375,42.9628125C180.05859375,42.9628125,181.23828125,42.9628125,181.23828125,42.9628125C181.23828125,42.9628125,179.8125,47.189375,179.8125,47.189375C179.8125,47.189375,178.734375,47.189375,178.734375,47.189375C178.734375,47.189375,177.30859375,42.9628125,177.30859375,42.9628125C177.30859375,42.9628125,178.48828125,42.9628125,178.48828125,42.9628125C178.48828125,42.9628125,179.2734375,45.81046875,179.2734375,45.81046875Z M183.484375,47.2675C182.86458203125,47.2675,182.36002734375,47.07739453125,181.970703125,46.6971875C181.58137890625,46.31698046875,181.38671875,45.81046875,181.38671875,45.17765625C181.38671875,45.17765625,181.38671875,45.06828125,181.38671875,45.06828125C181.38671875,44.64380078125,181.46875,44.26424609375,181.6328125,43.929609375C181.796875,43.59497265625,182.029296875,43.33716015625,182.330078125,43.156171875C182.630859375,42.97518359375,182.97395703125,42.8846875,183.359375,42.8846875C183.9375,42.8846875,184.392578125,43.06698046875,184.724609375,43.4315625C185.056640625,43.79614453125,185.22265625,44.31307421875,185.22265625,44.98234375C185.22265625,44.98234375,185.22265625,45.44328125,185.22265625,45.44328125C185.22265625,45.44328125,182.53125,45.44328125,182.53125,45.44328125C182.56770703125,45.71932421875,182.677734375,45.94067578125,182.861328125,46.10734375C183.044921875,46.27401171875,183.27734375,46.35734375,183.55859375,46.35734375C183.99348828125,46.35734375,184.33333203125,46.19979296875,184.578125,45.8846875C184.578125,45.8846875,185.1328125,46.50578125,185.1328125,46.50578125C184.96354296875,46.74536328125,184.734375,46.93221484375,184.4453125,47.066328125C184.15625,47.20044140625,183.8359375,47.2675,183.484375,47.2675Z M183.35546875,43.79875C183.13151171875,43.79875,182.94987109375,43.87426953125,182.810546875,44.0253125C182.67122265625,44.17635546875,182.58203125,44.3925,182.54296875,44.67375C182.54296875,44.67375,184.11328125,44.67375,184.11328125,44.67375C184.11328125,44.67375,184.11328125,44.58390625,184.11328125,44.58390625C184.10807421875,44.33390625,184.04036328125,44.140546875,183.91015625,44.003828125C183.77994921875,43.867109375,183.59505078125,43.79875,183.35546875,43.79875Z M188.23828125,44.02140625C188.08463671875,44.00057421875,187.94921875,43.99015625,187.83203125,43.99015625C187.40494921875,43.99015625,187.125,44.1346875,186.9921875,44.42375C186.9921875,44.42375,186.9921875,47.189375,186.9921875,47.189375C186.9921875,47.189375,185.86328125,47.189375,185.86328125,47.189375C185.86328125,47.189375,185.86328125,42.9628125,185.86328125,42.9628125C185.86328125,42.9628125,186.9296875,42.9628125,186.9296875,42.9628125C186.9296875,42.9628125,186.9609375,43.46671875,186.9609375,43.46671875C187.1875,43.07869921875,187.50130078125,42.8846875,187.90234375,42.8846875C188.02734375,42.8846875,188.14453125,42.90161328125,188.25390625,42.93546875C188.25390625,42.93546875,188.23828125,44.02140625,188.23828125,44.02140625Z M191.09375,46.02140625C191.09375,45.88338671875,191.025390625,45.77466015625,190.888671875,45.695234375C190.751953125,45.61580859375,190.53255078125,45.54484375,190.23046875,45.48234375C189.22526171875,45.27140625,188.72265625,44.84432421875,188.72265625,44.20109375C188.72265625,43.82609375,188.87825390625,43.51294140625,189.189453125,43.261640625C189.50065234375,43.01033984375,189.90755078125,42.8846875,190.41015625,42.8846875C190.94661328125,42.8846875,191.37565234375,43.01098828125,191.697265625,43.26359375C192.01887890625,43.51619921875,192.1796875,43.84432421875,192.1796875,44.24796875C192.1796875,44.24796875,191.05078125,44.24796875,191.05078125,44.24796875C191.05078125,44.08651171875,190.99869921875,43.953046875,190.89453125,43.847578125C190.79036328125,43.742109375,190.62760546875,43.689375,190.40625,43.689375C190.21614453125,43.689375,190.06901171875,43.73234375,189.96484375,43.81828125C189.86067578125,43.90421875,189.80859375,44.01359375,189.80859375,44.14640625C189.80859375,44.27140625,189.86783984375,44.37231640625,189.986328125,44.449140625C190.10481640625,44.52596484375,190.3046875,44.59237109375,190.5859375,44.648359375C190.8671875,44.70434765625,191.10416796875,44.7675,191.296875,44.8378125C191.89323046875,45.0565625,192.19140625,45.43546875,192.19140625,45.97453125C192.19140625,46.35994921875,192.02604296875,46.671796875,191.6953125,46.910078125C191.36458203125,47.148359375,190.9375,47.2675,190.4140625,47.2675C190.05989453125,47.2675,189.74544140625,47.20434765625,189.470703125,47.078046875C189.19596484375,46.95174609375,188.98046875,46.77856640625,188.82421875,46.558515625C188.66796875,46.33846484375,188.58984375,46.10083203125,188.58984375,45.845625C188.58984375,45.845625,189.66015625,45.845625,189.66015625,45.845625C189.67057421875,46.04614453125,189.74479296875,46.19979296875,189.8828125,46.3065625C190.02083203125,46.41333203125,190.20573046875,46.46671875,190.4375,46.46671875C190.65364453125,46.46671875,190.81705859375,46.425703125,190.927734375,46.343671875C191.03841015625,46.261640625,191.09375,46.15421875,191.09375,46.02140625Z M193.9921875,47.189375C193.9921875,47.189375,192.859375,47.189375,192.859375,47.189375C192.859375,47.189375,192.859375,42.9628125,192.859375,42.9628125C192.859375,42.9628125,193.9921875,42.9628125,193.9921875,42.9628125C193.9921875,42.9628125,193.9921875,47.189375,193.9921875,47.189375Z M192.79296875,41.8690625C192.79296875,41.69979296875,192.849609375,41.56046875,192.962890625,41.45109375C193.076171875,41.34171875,193.23046875,41.28703125,193.42578125,41.28703125C193.61848828125,41.28703125,193.77213671875,41.34171875,193.88671875,41.45109375C194.00130078125,41.56046875,194.05859375,41.69979296875,194.05859375,41.8690625C194.05859375,42.0409375,194.00065234375,42.1815625,193.884765625,42.2909375C193.76887890625,42.4003125,193.61588671875,42.455,193.42578125,42.455C193.23567578125,42.455,193.08268359375,42.4003125,192.966796875,42.2909375C192.85091015625,42.1815625,192.79296875,42.0409375,192.79296875,41.8690625Z M196.2734375,41.92375C196.2734375,41.92375,196.2734375,42.9628125,196.2734375,42.9628125C196.2734375,42.9628125,196.99609375,42.9628125,196.99609375,42.9628125C196.99609375,42.9628125,196.99609375,43.7909375,196.99609375,43.7909375C196.99609375,43.7909375,196.2734375,43.7909375,196.2734375,43.7909375C196.2734375,43.7909375,196.2734375,45.9003125,196.2734375,45.9003125C196.2734375,46.0565625,196.30338671875,46.16854296875,196.36328125,46.23625C196.42317578125,46.30395703125,196.53776171875,46.3378125,196.70703125,46.3378125C196.83203125,46.3378125,196.94270703125,46.32869921875,197.0390625,46.31046875C197.0390625,46.31046875,197.0390625,47.1659375,197.0390625,47.1659375C196.81770703125,47.23364453125,196.58984375,47.2675,196.35546875,47.2675C195.56380078125,47.2675,195.16015625,46.86776171875,195.14453125,46.06828125C195.14453125,46.06828125,195.14453125,43.7909375,195.14453125,43.7909375C195.14453125,43.7909375,194.52734375,43.7909375,194.52734375,43.7909375C194.52734375,43.7909375,194.52734375,42.9628125,194.52734375,42.9628125C194.52734375,42.9628125,195.14453125,42.9628125,195.14453125,42.9628125C195.14453125,42.9628125,195.14453125,41.92375,195.14453125,41.92375C195.14453125,41.92375,196.2734375,41.92375,196.2734375,41.92375Z M199.4375,45.59171875C199.4375,45.59171875,200.21875,42.9628125,200.21875,42.9628125C200.21875,42.9628125,201.4296875,42.9628125,201.4296875,42.9628125C201.4296875,42.9628125,199.73046875,47.845625,199.73046875,47.845625C199.73046875,47.845625,199.63671875,48.06828125,199.63671875,48.06828125C199.38411328125,48.62036328125,198.96744921875,48.89640625,198.38671875,48.89640625C198.22265625,48.89640625,198.05598828125,48.87166796875,197.88671875,48.8221875C197.88671875,48.8221875,197.88671875,47.96671875,197.88671875,47.96671875C197.88671875,47.96671875,198.05859375,47.970625,198.05859375,47.970625C198.27213671875,47.970625,198.431640625,47.93807421875,198.537109375,47.87296875C198.642578125,47.80786328125,198.72526171875,47.69979296875,198.78515625,47.54875C198.78515625,47.54875,198.91796875,47.20109375,198.91796875,47.20109375C198.91796875,47.20109375,197.4375,42.9628125,197.4375,42.9628125C197.4375,42.9628125,198.65234375,42.9628125,198.65234375,42.9628125C198.65234375,42.9628125,199.4375,45.59171875,199.4375,45.59171875Z M201.1953125,47.189375Z M205.2578125,46.24796875C205.2578125,46.24796875,207.74609375,46.24796875,207.74609375,46.24796875C207.74609375,46.24796875,207.74609375,47.189375,207.74609375,47.189375C207.74609375,47.189375,204.0859375,47.189375,204.0859375,47.189375C204.0859375,47.189375,204.0859375,41.501875,204.0859375,41.501875C204.0859375,41.501875,205.2578125,41.501875,205.2578125,41.501875C205.2578125,41.501875,205.2578125,46.24796875,205.2578125,46.24796875Z M209.53515625,47.189375C209.53515625,47.189375,208.40234375,47.189375,208.40234375,47.189375C208.40234375,47.189375,208.40234375,42.9628125,208.40234375,42.9628125C208.40234375,42.9628125,209.53515625,42.9628125,209.53515625,42.9628125C209.53515625,42.9628125,209.53515625,47.189375,209.53515625,47.189375Z M208.3359375,41.8690625C208.3359375,41.69979296875,208.392578125,41.56046875,208.505859375,41.45109375C208.619140625,41.34171875,208.7734375,41.28703125,208.96875,41.28703125C209.16145703125,41.28703125,209.31510546875,41.34171875,209.4296875,41.45109375C209.54426953125,41.56046875,209.6015625,41.69979296875,209.6015625,41.8690625C209.6015625,42.0409375,209.54362109375,42.1815625,209.427734375,42.2909375C209.31184765625,42.4003125,209.15885546875,42.455,208.96875,42.455C208.77864453125,42.455,208.62565234375,42.4003125,208.509765625,42.2909375C208.39387890625,42.1815625,208.3359375,42.0409375,208.3359375,41.8690625Z M214.2734375,45.11515625C214.2734375,45.79223828125,214.12890625,46.320234375,213.83984375,46.699140625C213.55078125,47.078046875,213.14713671875,47.2675,212.62890625,47.2675C212.17057421875,47.2675,211.8046875,47.09171875,211.53125,46.74015625C211.53125,46.74015625,211.48046875,47.189375,211.48046875,47.189375C211.48046875,47.189375,210.46484375,47.189375,210.46484375,47.189375C210.46484375,47.189375,210.46484375,41.189375,210.46484375,41.189375C210.46484375,41.189375,211.59375,41.189375,211.59375,41.189375C211.59375,41.189375,211.59375,43.34171875,211.59375,43.34171875C211.85416796875,43.03703125,212.19661328125,42.8846875,212.62109375,42.8846875C213.13671875,42.8846875,213.541015625,43.074140625,213.833984375,43.453046875C214.126953125,43.831953125,214.2734375,44.36515625,214.2734375,45.05265625C214.2734375,45.05265625,214.2734375,45.11515625,214.2734375,45.11515625Z M213.14453125,45.033125C213.14453125,44.60604296875,213.07682421875,44.29419140625,212.94140625,44.097578125C212.80598828125,43.90096484375,212.60416796875,43.80265625,212.3359375,43.80265625C211.9765625,43.80265625,211.72916796875,43.94979296875,211.59375,44.2440625C211.59375,44.2440625,211.59375,45.91203125,211.59375,45.91203125C211.73176953125,46.20890625,211.98176953125,46.35734375,212.34375,46.35734375C212.70833203125,46.35734375,212.94791796875,46.17765625,213.0625,45.81828125C213.1171875,45.64640625,213.14453125,45.3846875,213.14453125,45.033125Z M217.34375,44.02140625C217.19010546875,44.00057421875,217.0546875,43.99015625,216.9375,43.99015625C216.51041796875,43.99015625,216.23046875,44.1346875,216.09765625,44.42375C216.09765625,44.42375,216.09765625,47.189375,216.09765625,47.189375C216.09765625,47.189375,214.96875,47.189375,214.96875,47.189375C214.96875,47.189375,214.96875,42.9628125,214.96875,42.9628125C214.96875,42.9628125,216.03515625,42.9628125,216.03515625,42.9628125C216.03515625,42.9628125,216.06640625,43.46671875,216.06640625,43.46671875C216.29296875,43.07869921875,216.60676953125,42.8846875,217.0078125,42.8846875C217.1328125,42.8846875,217.25,42.90161328125,217.359375,42.93546875C217.359375,42.93546875,217.34375,44.02140625,217.34375,44.02140625Z M220.359375,47.189375C220.30729296875,47.0878125,220.26953125,46.96151171875,220.24609375,46.81046875C219.97265625,47.11515625,219.6171875,47.2675,219.1796875,47.2675C218.765625,47.2675,218.42252734375,47.14770703125,218.150390625,46.908125C217.87825390625,46.66854296875,217.7421875,46.36645703125,217.7421875,46.001875C217.7421875,45.55395703125,217.908203125,45.21020703125,218.240234375,44.970625C218.572265625,44.73104296875,219.05208203125,44.60994921875,219.6796875,44.60734375C219.6796875,44.60734375,220.19921875,44.60734375,220.19921875,44.60734375C220.19921875,44.60734375,220.19921875,44.36515625,220.19921875,44.36515625C220.19921875,44.16984375,220.14908984375,44.01359375,220.048828125,43.89640625C219.94856640625,43.77921875,219.79036328125,43.720625,219.57421875,43.720625C219.38411328125,43.720625,219.23502734375,43.76619921875,219.126953125,43.85734375C219.01887890625,43.94848828125,218.96484375,44.07348828125,218.96484375,44.23234375C218.96484375,44.23234375,217.8359375,44.23234375,217.8359375,44.23234375C217.8359375,43.98755078125,217.91145703125,43.76098828125,218.0625,43.55265625C218.21354296875,43.34432421875,218.42708203125,43.18091015625,218.703125,43.062421875C218.97916796875,42.94393359375,219.2890625,42.8846875,219.6328125,42.8846875C220.15364453125,42.8846875,220.56705859375,43.015546875,220.873046875,43.277265625C221.17903515625,43.538984375,221.33203125,43.90682421875,221.33203125,44.38078125C221.33203125,44.38078125,221.33203125,46.2128125,221.33203125,46.2128125C221.33463671875,46.61385546875,221.390625,46.91723828125,221.5,47.12296875C221.5,47.12296875,221.5,47.189375,221.5,47.189375C221.5,47.189375,220.359375,47.189375,220.359375,47.189375Z M219.42578125,46.40421875C219.59244921875,46.40421875,219.74609375,46.367109375,219.88671875,46.292890625C220.02734375,46.218671875,220.13151171875,46.1190625,220.19921875,45.9940625C220.19921875,45.9940625,220.19921875,45.2675,220.19921875,45.2675C220.19921875,45.2675,219.77734375,45.2675,219.77734375,45.2675C219.21223828125,45.2675,218.91145703125,45.4628125,218.875,45.8534375C218.875,45.8534375,218.87109375,45.91984375,218.87109375,45.91984375C218.87109375,46.06046875,218.92057421875,46.17635546875,219.01953125,46.2675C219.11848828125,46.35864453125,219.25390625,46.40421875,219.42578125,46.40421875Z M224.58203125,44.02140625C224.42838671875,44.00057421875,224.29296875,43.99015625,224.17578125,43.99015625C223.74869921875,43.99015625,223.46875,44.1346875,223.3359375,44.42375C223.3359375,44.42375,223.3359375,47.189375,223.3359375,47.189375C223.3359375,47.189375,222.20703125,47.189375,222.20703125,47.189375C222.20703125,47.189375,222.20703125,42.9628125,222.20703125,42.9628125C222.20703125,42.9628125,223.2734375,42.9628125,223.2734375,42.9628125C223.2734375,42.9628125,223.3046875,43.46671875,223.3046875,43.46671875C223.53125,43.07869921875,223.84505078125,42.8846875,224.24609375,42.8846875C224.37109375,42.8846875,224.48828125,42.90161328125,224.59765625,42.93546875C224.59765625,42.93546875,224.58203125,44.02140625,224.58203125,44.02140625Z M226.45703125,47.189375C226.45703125,47.189375,225.32421875,47.189375,225.32421875,47.189375C225.32421875,47.189375,225.32421875,42.9628125,225.32421875,42.9628125C225.32421875,42.9628125,226.45703125,42.9628125,226.45703125,42.9628125C226.45703125,42.9628125,226.45703125,47.189375,226.45703125,47.189375Z M225.2578125,41.8690625C225.2578125,41.69979296875,225.314453125,41.56046875,225.427734375,41.45109375C225.541015625,41.34171875,225.6953125,41.28703125,225.890625,41.28703125C226.08333203125,41.28703125,226.23698046875,41.34171875,226.3515625,41.45109375C226.46614453125,41.56046875,226.5234375,41.69979296875,226.5234375,41.8690625C226.5234375,42.0409375,226.46549609375,42.1815625,226.349609375,42.2909375C226.23372265625,42.4003125,226.08073046875,42.455,225.890625,42.455C225.70051953125,42.455,225.54752734375,42.4003125,225.431640625,42.2909375C225.31575390625,42.1815625,225.2578125,42.0409375,225.2578125,41.8690625Z M229.33203125,47.2675C228.71223828125,47.2675,228.20768359375,47.07739453125,227.818359375,46.6971875C227.42903515625,46.31698046875,227.234375,45.81046875,227.234375,45.17765625C227.234375,45.17765625,227.234375,45.06828125,227.234375,45.06828125C227.234375,44.64380078125,227.31640625,44.26424609375,227.48046875,43.929609375C227.64453125,43.59497265625,227.876953125,43.33716015625,228.177734375,43.156171875C228.478515625,42.97518359375,228.82161328125,42.8846875,229.20703125,42.8846875C229.78515625,42.8846875,230.240234375,43.06698046875,230.572265625,43.4315625C230.904296875,43.79614453125,231.0703125,44.31307421875,231.0703125,44.98234375C231.0703125,44.98234375,231.0703125,45.44328125,231.0703125,45.44328125C231.0703125,45.44328125,228.37890625,45.44328125,228.37890625,45.44328125C228.41536328125,45.71932421875,228.525390625,45.94067578125,228.708984375,46.10734375C228.892578125,46.27401171875,229.125,46.35734375,229.40625,46.35734375C229.84114453125,46.35734375,230.18098828125,46.19979296875,230.42578125,45.8846875C230.42578125,45.8846875,230.98046875,46.50578125,230.98046875,46.50578125C230.81119921875,46.74536328125,230.58203125,46.93221484375,230.29296875,47.066328125C230.00390625,47.20044140625,229.68359375,47.2675,229.33203125,47.2675Z M229.203125,43.79875C228.97916796875,43.79875,228.79752734375,43.87426953125,228.658203125,44.0253125C228.51887890625,44.17635546875,228.4296875,44.3925,228.390625,44.67375C228.390625,44.67375,229.9609375,44.67375,229.9609375,44.67375C229.9609375,44.67375,229.9609375,44.58390625,229.9609375,44.58390625C229.95573046875,44.33390625,229.88801953125,44.140546875,229.7578125,44.003828125C229.62760546875,43.867109375,229.44270703125,43.79875,229.203125,43.79875Z M234,46.02140625C234,45.88338671875,233.931640625,45.77466015625,233.794921875,45.695234375C233.658203125,45.61580859375,233.43880078125,45.54484375,233.13671875,45.48234375C232.13151171875,45.27140625,231.62890625,44.84432421875,231.62890625,44.20109375C231.62890625,43.82609375,231.78450390625,43.51294140625,232.095703125,43.261640625C232.40690234375,43.01033984375,232.81380078125,42.8846875,233.31640625,42.8846875C233.85286328125,42.8846875,234.28190234375,43.01098828125,234.603515625,43.26359375C234.92512890625,43.51619921875,235.0859375,43.84432421875,235.0859375,44.24796875C235.0859375,44.24796875,233.95703125,44.24796875,233.95703125,44.24796875C233.95703125,44.08651171875,233.90494921875,43.953046875,233.80078125,43.847578125C233.69661328125,43.742109375,233.53385546875,43.689375,233.3125,43.689375C233.12239453125,43.689375,232.97526171875,43.73234375,232.87109375,43.81828125C232.76692578125,43.90421875,232.71484375,44.01359375,232.71484375,44.14640625C232.71484375,44.27140625,232.77408984375,44.37231640625,232.892578125,44.449140625C233.01106640625,44.52596484375,233.2109375,44.59237109375,233.4921875,44.648359375C233.7734375,44.70434765625,234.01041796875,44.7675,234.203125,44.8378125C234.79948046875,45.0565625,235.09765625,45.43546875,235.09765625,45.97453125C235.09765625,46.35994921875,234.93229296875,46.671796875,234.6015625,46.910078125C234.27083203125,47.148359375,233.84375,47.2675,233.3203125,47.2675C232.96614453125,47.2675,232.65169140625,47.20434765625,232.376953125,47.078046875C232.10221484375,46.95174609375,231.88671875,46.77856640625,231.73046875,46.558515625C231.57421875,46.33846484375,231.49609375,46.10083203125,231.49609375,45.845625C231.49609375,45.845625,232.56640625,45.845625,232.56640625,45.845625C232.57682421875,46.04614453125,232.65104296875,46.19979296875,232.7890625,46.3065625C232.92708203125,46.41333203125,233.11198046875,46.46671875,233.34375,46.46671875C233.55989453125,46.46671875,233.72330859375,46.425703125,233.833984375,46.343671875C233.94466015625,46.261640625,234,46.15421875,234,46.02140625Z"/><path fill="#000000" d="M184.8330078125,52.414875C184.8330078125,52.414875,186.2275390625,55.89534375,186.2275390625,55.89534375C186.2275390625,55.89534375,187.6220703125,52.414875,187.6220703125,52.414875C187.6220703125,52.414875,188.3515625,52.414875,188.3515625,52.414875C188.3515625,52.414875,188.3515625,56.6805,188.3515625,56.6805C188.3515625,56.6805,187.7890625,56.6805,187.7890625,56.6805C187.7890625,56.6805,187.7890625,55.0193671875,187.7890625,55.0193671875C187.7890625,55.0193671875,187.841796875,53.2263984375,187.841796875,53.2263984375C187.841796875,53.2263984375,186.44140625,56.6805,186.44140625,56.6805C186.44140625,56.6805,186.0107421875,56.6805,186.0107421875,56.6805C186.0107421875,56.6805,184.61328125,53.2351875,184.61328125,53.2351875C184.61328125,53.2351875,184.6689453125,55.0193671875,184.6689453125,55.0193671875C184.6689453125,55.0193671875,184.6689453125,56.6805,184.6689453125,56.6805C184.6689453125,56.6805,184.1064453125,56.6805,184.1064453125,56.6805C184.1064453125,56.6805,184.1064453125,52.414875,184.1064453125,52.414875C184.1064453125,52.414875,184.8330078125,52.414875,184.8330078125,52.414875Z M191.216796875,56.6805C191.18554589844,56.618000976562,191.16015722656,56.506672851562,191.140625,56.346515625C190.888671875,56.608233398438,190.58788964844,56.73909375,190.23828125,56.73909375C189.92578027344,56.73909375,189.66943261719,56.650713867188,189.46923828125,56.47395703125C189.26904394531,56.297200195312,189.1689453125,56.073079101562,189.1689453125,55.80159375C189.1689453125,55.471514648438,189.29443261719,55.215166992188,189.54541015625,55.03255078125C189.79638769531,54.849934570312,190.14941503906,54.758625,190.6044921875,54.758625C190.6044921875,54.758625,191.1318359375,54.758625,191.1318359375,54.758625C191.1318359375,54.758625,191.1318359375,54.5096015625,191.1318359375,54.5096015625C191.1318359375,54.320147460938,191.07519628906,54.169268554688,190.9619140625,54.05696484375C190.84863183594,53.944661132812,190.68163964844,53.8885078125,190.4609375,53.8885078125C190.267578125,53.8885078125,190.10546972656,53.937336914062,189.974609375,54.0349921875C189.84374902344,54.132647460938,189.7783203125,54.250813476562,189.7783203125,54.389484375C189.7783203125,54.389484375,189.2333984375,54.389484375,189.2333984375,54.389484375C189.2333984375,54.23128125,189.28955175781,54.078448242188,189.40185546875,53.93098828125C189.51415917969,53.783528320312,189.66650292969,53.666827148438,189.85888671875,53.580890625C190.05127050781,53.494954101562,190.26269433594,53.451984375,190.4931640625,53.451984375C190.85839941406,53.451984375,191.14453027344,53.543293945312,191.3515625,53.72591015625C191.55859472656,53.908526367188,191.66601464844,54.159993164062,191.673828125,54.4803046875C191.673828125,54.4803046875,191.673828125,55.9392890625,191.673828125,55.9392890625C191.673828125,56.230303710938,191.71093847656,56.461749023438,191.78515625,56.633625C191.78515625,56.633625,191.78515625,56.6805,191.78515625,56.6805C191.78515625,56.6805,191.216796875,56.6805,191.216796875,56.6805Z M190.3173828125,56.2674140625C190.4873046875,56.2674140625,190.6484375,56.22346875,190.80078125,56.135578125C190.953125,56.0476875,191.06347753906,55.9334296875,191.1318359375,55.7928046875C191.1318359375,55.7928046875,191.1318359375,55.1424140625,191.1318359375,55.1424140625C191.1318359375,55.1424140625,190.70703125,55.1424140625,190.70703125,55.1424140625C190.04296777344,55.1424140625,189.7109375,55.336749023438,189.7109375,55.725421875C189.7109375,55.89534375,189.76757714844,56.028155273438,189.880859375,56.123859375C189.99414160156,56.219563476562,190.13964746094,56.2674140625,190.3173828125,56.2674140625Z M193.1123046875,56.6805C193.1123046875,56.6805,192.5703125,56.6805,192.5703125,56.6805C192.5703125,56.6805,192.5703125,53.510578125,192.5703125,53.510578125C192.5703125,53.510578125,193.1123046875,53.510578125,193.1123046875,53.510578125C193.1123046875,53.510578125,193.1123046875,56.6805,193.1123046875,56.6805Z M192.5263671875,52.6697578125C192.5263671875,52.5818671875,192.55322363281,52.507649414062,192.60693359375,52.4471015625C192.66064355469,52.386553710938,192.740234375,52.35628125,192.845703125,52.35628125C192.951171875,52.35628125,193.03124902344,52.386553710938,193.0859375,52.4471015625C193.14062597656,52.507649414062,193.16796875,52.5818671875,193.16796875,52.6697578125C193.16796875,52.7576484375,193.14062597656,52.830890625,193.0859375,52.889484375C193.03124902344,52.948078125,192.951171875,52.977375,192.845703125,52.977375C192.740234375,52.977375,192.66064355469,52.948078125,192.60693359375,52.889484375C192.55322363281,52.830890625,192.5263671875,52.7576484375,192.5263671875,52.6697578125Z M194.4921875,53.510578125C194.4921875,53.510578125,194.509765625,53.909015625,194.509765625,53.909015625C194.75195410156,53.604328125,195.06836035156,53.451984375,195.458984375,53.451984375C196.12890722656,53.451984375,196.466796875,53.8299140625,196.47265625,54.5857734375C196.47265625,54.5857734375,196.47265625,56.6805,196.47265625,56.6805C196.47265625,56.6805,195.9306640625,56.6805,195.9306640625,56.6805C195.9306640625,56.6805,195.9306640625,54.58284375,195.9306640625,54.58284375C195.92870996094,54.354328125,195.87646484375,54.185381835938,195.77392578125,54.0760078125C195.67138671875,53.966633789062,195.51171875,53.9119453125,195.294921875,53.9119453125C195.119140625,53.9119453125,194.96484277344,53.9588203125,194.83203125,54.0525703125C194.69921972656,54.1463203125,194.59570214844,54.2693671875,194.521484375,54.4217109375C194.521484375,54.4217109375,194.521484375,56.6805,194.521484375,56.6805C194.521484375,56.6805,193.9794921875,56.6805,193.9794921875,56.6805C193.9794921875,56.6805,193.9794921875,53.510578125,193.9794921875,53.510578125C193.9794921875,53.510578125,194.4921875,53.510578125,194.4921875,53.510578125Z M196.7041015625,56.6805Z M199.42578125,56.2205390625C199.42578125,56.2205390625,201.447265625,56.2205390625,201.447265625,56.2205390625C201.447265625,56.2205390625,201.447265625,56.6805,201.447265625,56.6805C201.447265625,56.6805,198.8603515625,56.6805,198.8603515625,56.6805C198.8603515625,56.6805,198.8603515625,52.414875,198.8603515625,52.414875C198.8603515625,52.414875,199.42578125,52.414875,199.42578125,52.414875C199.42578125,52.414875,199.42578125,56.2205390625,199.42578125,56.2205390625Z M202.5927734375,56.6805C202.5927734375,56.6805,202.05078125,56.6805,202.05078125,56.6805C202.05078125,56.6805,202.05078125,53.510578125,202.05078125,53.510578125C202.05078125,53.510578125,202.5927734375,53.510578125,202.5927734375,53.510578125C202.5927734375,53.510578125,202.5927734375,56.6805,202.5927734375,56.6805Z M202.0068359375,52.6697578125C202.0068359375,52.5818671875,202.03369238281,52.507649414062,202.08740234375,52.4471015625C202.14111230469,52.386553710938,202.220703125,52.35628125,202.326171875,52.35628125C202.431640625,52.35628125,202.51171777344,52.386553710938,202.56640625,52.4471015625C202.62109472656,52.507649414062,202.6484375,52.5818671875,202.6484375,52.6697578125C202.6484375,52.7576484375,202.62109472656,52.830890625,202.56640625,52.889484375C202.51171777344,52.948078125,202.431640625,52.977375,202.326171875,52.977375C202.220703125,52.977375,202.14111230469,52.948078125,202.08740234375,52.889484375C202.03369238281,52.830890625,202.0068359375,52.7576484375,202.0068359375,52.6697578125Z M206.1435546875,55.1306953125C206.1435546875,55.615069335938,206.0322265625,56.004231445312,205.8095703125,56.29817578125C205.5869140625,56.592120117188,205.2880859375,56.73909375,204.9130859375,56.73909375C204.51269433594,56.73909375,204.20312597656,56.597493164062,203.984375,56.3142890625C203.984375,56.3142890625,203.9580078125,56.6805,203.9580078125,56.6805C203.9580078125,56.6805,203.4599609375,56.6805,203.4599609375,56.6805C203.4599609375,56.6805,203.4599609375,52.1805,203.4599609375,52.1805C203.4599609375,52.1805,204.001953125,52.1805,204.001953125,52.1805C204.001953125,52.1805,204.001953125,53.8592109375,204.001953125,53.8592109375C204.22070410156,53.587725585938,204.52246191406,53.451984375,204.9072265625,53.451984375C205.29199121094,53.451984375,205.59423828125,53.597493164062,205.81396484375,53.8885078125C206.03369140625,54.179522460938,206.1435546875,54.577959960938,206.1435546875,55.0838203125C206.1435546875,55.0838203125,206.1435546875,55.1306953125,206.1435546875,55.1306953125Z M205.6015625,55.069171875C205.6015625,54.70003125,205.53027441406,54.414875976562,205.3876953125,54.213703125C205.24511621094,54.012530273438,205.04003808594,53.9119453125,204.7724609375,53.9119453125C204.4150390625,53.9119453125,204.15820214844,54.077961914062,204.001953125,54.4099921875C204.001953125,54.4099921875,204.001953125,55.7810859375,204.001953125,55.7810859375C204.16796972656,56.113116210938,204.4267578125,56.2791328125,204.7783203125,56.2791328125C205.03808691406,56.2791328125,205.24023535156,56.178547851562,205.384765625,55.977375C205.52929589844,55.776202148438,205.6015625,55.47346875,205.6015625,55.069171875Z M208.3583984375,53.99690625C208.2763671875,53.983233398438,208.18750097656,53.9763984375,208.091796875,53.9763984375C207.73632910156,53.9763984375,207.49511621094,54.127766601562,207.3681640625,54.4305C207.3681640625,54.4305,207.3681640625,56.6805,207.3681640625,56.6805C207.3681640625,56.6805,206.826171875,56.6805,206.826171875,56.6805C206.826171875,56.6805,206.826171875,53.510578125,206.826171875,53.510578125C206.826171875,53.510578125,207.353515625,53.510578125,207.353515625,53.510578125C207.353515625,53.510578125,207.3623046875,53.8767890625,207.3623046875,53.8767890625C207.54004003906,53.593584960938,207.79199316406,53.451984375,208.1181640625,53.451984375C208.2236328125,53.451984375,208.30370996094,53.465657226562,208.3583984375,53.493C208.3583984375,53.493,208.3583984375,53.99690625,208.3583984375,53.99690625Z M210.7841796875,56.6805C210.75292871094,56.618000976562,210.72754003906,56.506672851562,210.7080078125,56.346515625C210.4560546875,56.608233398438,210.15527246094,56.73909375,209.8056640625,56.73909375C209.49316308594,56.73909375,209.23681542969,56.650713867188,209.03662109375,56.47395703125C208.83642675781,56.297200195312,208.736328125,56.073079101562,208.736328125,55.80159375C208.736328125,55.471514648438,208.86181542969,55.215166992188,209.11279296875,55.03255078125C209.36377050781,54.849934570312,209.71679785156,54.758625,210.171875,54.758625C210.171875,54.758625,210.69921875,54.758625,210.69921875,54.758625C210.69921875,54.758625,210.69921875,54.5096015625,210.69921875,54.5096015625C210.69921875,54.320147460938,210.64257910156,54.169268554688,210.529296875,54.05696484375C210.41601464844,53.944661132812,210.24902246094,53.8885078125,210.0283203125,53.8885078125C209.8349609375,53.8885078125,209.67285253906,53.937336914062,209.5419921875,54.0349921875C209.41113183594,54.132647460938,209.345703125,54.250813476562,209.345703125,54.389484375C209.345703125,54.389484375,208.80078125,54.389484375,208.80078125,54.389484375C208.80078125,54.23128125,208.85693457031,54.078448242188,208.96923828125,53.93098828125C209.08154199219,53.783528320312,209.23388574219,53.666827148438,209.42626953125,53.580890625C209.61865332031,53.494954101562,209.83007714844,53.451984375,210.060546875,53.451984375C210.42578222656,53.451984375,210.71191308594,53.543293945312,210.9189453125,53.72591015625C211.12597753906,53.908526367188,211.23339746094,54.159993164062,211.2412109375,54.4803046875C211.2412109375,54.4803046875,211.2412109375,55.9392890625,211.2412109375,55.9392890625C211.2412109375,56.230303710938,211.27832128906,56.461749023438,211.3525390625,56.633625C211.3525390625,56.633625,211.3525390625,56.6805,211.3525390625,56.6805C211.3525390625,56.6805,210.7841796875,56.6805,210.7841796875,56.6805Z M209.884765625,56.2674140625C210.0546875,56.2674140625,210.2158203125,56.22346875,210.3681640625,56.135578125C210.5205078125,56.0476875,210.63086035156,55.9334296875,210.69921875,55.7928046875C210.69921875,55.7928046875,210.69921875,55.1424140625,210.69921875,55.1424140625C210.69921875,55.1424140625,210.2744140625,55.1424140625,210.2744140625,55.1424140625C209.61035058594,55.1424140625,209.2783203125,55.336749023438,209.2783203125,55.725421875C209.2783203125,55.89534375,209.33495996094,56.028155273438,209.4482421875,56.123859375C209.56152441406,56.219563476562,209.70703027344,56.2674140625,209.884765625,56.2674140625Z M213.505859375,53.99690625C213.423828125,53.983233398438,213.33496191406,53.9763984375,213.2392578125,53.9763984375C212.88379003906,53.9763984375,212.64257714844,54.127766601562,212.515625,54.4305C212.515625,54.4305,212.515625,56.6805,212.515625,56.6805C212.515625,56.6805,211.9736328125,56.6805,211.9736328125,56.6805C211.9736328125,56.6805,211.9736328125,53.510578125,211.9736328125,53.510578125C211.9736328125,53.510578125,212.5009765625,53.510578125,212.5009765625,53.510578125C212.5009765625,53.510578125,212.509765625,53.8767890625,212.509765625,53.8767890625C212.68750097656,53.593584960938,212.93945410156,53.451984375,213.265625,53.451984375C213.37109375,53.451984375,213.45117089844,53.465657226562,213.505859375,53.493C213.505859375,53.493,213.505859375,53.99690625,213.505859375,53.99690625Z M215.3046875,55.8865546875C215.3046875,55.8865546875,216.04296875,53.510578125,216.04296875,53.510578125C216.04296875,53.510578125,216.623046875,53.510578125,216.623046875,53.510578125C216.623046875,53.510578125,215.3486328125,57.1697578125,215.3486328125,57.1697578125C215.15136816406,57.6971015625,214.83789160156,57.9607734375,214.408203125,57.9607734375C214.408203125,57.9607734375,214.3056640625,57.951984375,214.3056640625,57.951984375C214.3056640625,57.951984375,214.103515625,57.9138984375,214.103515625,57.9138984375C214.103515625,57.9138984375,214.103515625,57.4744453125,214.103515625,57.4744453125C214.103515625,57.4744453125,214.25,57.4861640625,214.25,57.4861640625C214.43359472656,57.4861640625,214.57666015625,57.449053710938,214.67919921875,57.3748359375C214.78173828125,57.300618164062,214.86620996094,57.164874023438,214.9326171875,56.967609375C214.9326171875,56.967609375,215.052734375,56.64534375,215.052734375,56.64534375C215.052734375,56.64534375,213.921875,53.510578125,213.921875,53.510578125C213.921875,53.510578125,214.513671875,53.510578125,214.513671875,53.510578125C214.513671875,53.510578125,215.3046875,55.8865546875,215.3046875,55.8865546875Z"/></svg>
