<?xml version="1.0"?>
<svg version="1.1" xmlns="http://www.w3.org/2000/svg" viewBox="0 0 400 100" role="img" aria-label="The University of Iowa University Libraries Main Library"><path fill="#000000" d="M54.9,43.73H53.17V56.19H54.9v4.54H45.39V56.19h1.73V43.73H45.39V39.27H54.9Z"/><path fill="#000000" d="M67.68,60.73H60.79c-2.5,0-4.14-1.64-4.14-4.33V43.59a4,4,0,0,1,3.66-4.31,3.85,3.85,0,0,1,.48,0h6.89c2.5,0,4.13,1.67,4.13,4.32V56.37a4,4,0,0,1-3.62,4.35A4.34,4.34,0,0,1,67.68,60.73Zm-2-4.51V43.73h-3V56.19Z"/><path fill="#000000" d="M74.52,43.74H73V39.28h9v4.46H80.3l1.55,10.31,3.21-14.79h4.57l3.43,14.79,1.25-10.31H92.74V39.28h8.89v4.46h-1.48l-2.69,17H90.21L87.4,48.08,84.52,60.74h-7Z"/><path fill="#000000" d="M100.06,56.19h1.63l3.25-16.92h9.72l3.21,16.92h1.52v4.54h-7.26l-.68-5.22h-3.61l-.65,5.22h-7.13Zm11-4.63-1.39-8.65-1.42,8.65Z"/><path fill="#000000" d="M135.650125,42.86465625C135.650125,42.86465625,135.650125,46.61075,135.650125,46.61075C135.650125,47.23314453125,135.45546484375,47.72533203125,135.066140625,48.0873125C134.67681640625,48.44929296875,134.14491796875,48.63028125,133.4704375,48.63028125C132.806375,48.63028125,132.27903125,48.4545,131.88840625,48.1029375C131.49778125,47.751375,131.2985625,47.26830078125,131.29075,46.65371875C131.29075,46.65371875,131.29075,42.86465625,131.29075,42.86465625C131.29075,42.86465625,132.462625,42.86465625,132.462625,42.86465625C132.462625,42.86465625,132.462625,46.6185625,132.462625,46.6185625C132.462625,46.99095703125,132.55181640625,47.26244140625,132.730203125,47.433015625C132.90858984375,47.60358984375,133.15533203125,47.688875,133.4704375,47.688875C134.12929296875,47.688875,134.46392578125,47.34251953125,134.47434375,46.6498125C134.47434375,46.6498125,134.47434375,42.86465625,134.47434375,42.86465625C134.47434375,42.86465625,135.650125,42.86465625,135.650125,42.86465625Z M137.57590625,44.32559375C137.57590625,44.32559375,137.6110625,44.813875,137.6110625,44.813875C137.91314453125,44.43626953125,138.31809375,44.24746875,138.82590625,44.24746875C139.27382421875,44.24746875,139.60715625,44.37898046875,139.82590625,44.642C140.04465625,44.90501953125,140.15663671875,45.29825,140.16184375,45.8216875C140.16184375,45.8216875,140.16184375,48.55215625,140.16184375,48.55215625C140.16184375,48.55215625,139.0329375,48.55215625,139.0329375,48.55215625C139.0329375,48.55215625,139.0329375,45.84903125,139.0329375,45.84903125C139.0329375,45.60944921875,138.98085546875,45.43562109375,138.8766875,45.327546875C138.77251953125,45.21947265625,138.59934375,45.1654375,138.35715625,45.1654375C138.03944921875,45.1654375,137.80116796875,45.30085546875,137.6423125,45.5716875C137.6423125,45.5716875,137.6423125,48.55215625,137.6423125,48.55215625C137.6423125,48.55215625,136.51340625,48.55215625,136.51340625,48.55215625C136.51340625,48.55215625,136.51340625,44.32559375,136.51340625,44.32559375C136.51340625,44.32559375,137.57590625,44.32559375,137.57590625,44.32559375Z M142.20871875,48.55215625C142.20871875,48.55215625,141.07590625,48.55215625,141.07590625,48.55215625C141.07590625,48.55215625,141.07590625,44.32559375,141.07590625,44.32559375C141.07590625,44.32559375,142.20871875,44.32559375,142.20871875,44.32559375C142.20871875,44.32559375,142.20871875,48.55215625,142.20871875,48.55215625Z M141.0095,43.23184375C141.0095,43.06257421875,141.066140625,42.92325,141.179421875,42.813875C141.292703125,42.7045,141.447,42.6498125,141.6423125,42.6498125C141.83501953125,42.6498125,141.98866796875,42.7045,142.10325,42.813875C142.21783203125,42.92325,142.275125,43.06257421875,142.275125,43.23184375C142.275125,43.40371875,142.21718359375,43.54434375,142.101296875,43.65371875C141.98541015625,43.76309375,141.83241796875,43.81778125,141.6423125,43.81778125C141.45220703125,43.81778125,141.29921484375,43.76309375,141.183328125,43.65371875C141.06744140625,43.54434375,141.0095,43.40371875,141.0095,43.23184375Z M144.7204375,47.17325C144.7204375,47.17325,145.50559375,44.32559375,145.50559375,44.32559375C145.50559375,44.32559375,146.68528125,44.32559375,146.68528125,44.32559375C146.68528125,44.32559375,145.2595,48.55215625,145.2595,48.55215625C145.2595,48.55215625,144.181375,48.55215625,144.181375,48.55215625C144.181375,48.55215625,142.75559375,44.32559375,142.75559375,44.32559375C142.75559375,44.32559375,143.93528125,44.32559375,143.93528125,44.32559375C143.93528125,44.32559375,144.7204375,47.17325,144.7204375,47.17325Z M148.931375,48.63028125C148.31158203125,48.63028125,147.80702734375,48.44017578125,147.417703125,48.05996875C147.02837890625,47.67976171875,146.83371875,47.17325,146.83371875,46.5404375C146.83371875,46.5404375,146.83371875,46.4310625,146.83371875,46.4310625C146.83371875,46.00658203125,146.91575,45.62702734375,147.0798125,45.292390625C147.243875,44.95775390625,147.476296875,44.69994140625,147.777078125,44.518953125C148.077859375,44.33796484375,148.42095703125,44.24746875,148.806375,44.24746875C149.3845,44.24746875,149.839578125,44.42976171875,150.171609375,44.79434375C150.503640625,45.15892578125,150.66965625,45.67585546875,150.66965625,46.345125C150.66965625,46.345125,150.66965625,46.8060625,150.66965625,46.8060625C150.66965625,46.8060625,147.97825,46.8060625,147.97825,46.8060625C148.01470703125,47.08210546875,148.124734375,47.30345703125,148.308328125,47.470125C148.491921875,47.63679296875,148.72434375,47.720125,149.00559375,47.720125C149.44048828125,47.720125,149.78033203125,47.56257421875,150.025125,47.24746875C150.025125,47.24746875,150.5798125,47.8685625,150.5798125,47.8685625C150.41054296875,48.10814453125,150.181375,48.29499609375,149.8923125,48.429109375C149.60325,48.56322265625,149.2829375,48.63028125,148.931375,48.63028125Z M148.80246875,45.16153125C148.57851171875,45.16153125,148.39687109375,45.23705078125,148.257546875,45.38809375C148.11822265625,45.53913671875,148.02903125,45.75528125,147.98996875,46.03653125C147.98996875,46.03653125,149.56028125,46.03653125,149.56028125,46.03653125C149.56028125,46.03653125,149.56028125,45.9466875,149.56028125,45.9466875C149.55507421875,45.6966875,149.48736328125,45.503328125,149.35715625,45.366609375C149.22694921875,45.229890625,149.04205078125,45.16153125,148.80246875,45.16153125Z M153.68528125,45.3841875C153.53163671875,45.36335546875,153.39621875,45.3529375,153.27903125,45.3529375C152.85194921875,45.3529375,152.572,45.49746875,152.4391875,45.78653125C152.4391875,45.78653125,152.4391875,48.55215625,152.4391875,48.55215625C152.4391875,48.55215625,151.31028125,48.55215625,151.31028125,48.55215625C151.31028125,48.55215625,151.31028125,44.32559375,151.31028125,44.32559375C151.31028125,44.32559375,152.3766875,44.32559375,152.3766875,44.32559375C152.3766875,44.32559375,152.4079375,44.8295,152.4079375,44.8295C152.6345,44.44148046875,152.94830078125,44.24746875,153.34934375,44.24746875C153.47434375,44.24746875,153.59153125,44.26439453125,153.70090625,44.29825C153.70090625,44.29825,153.68528125,45.3841875,153.68528125,45.3841875Z M156.54075,47.3841875C156.54075,47.24616796875,156.472390625,47.13744140625,156.335671875,47.058015625C156.198953125,46.97858984375,155.97955078125,46.907625,155.67746875,46.845125C154.67226171875,46.6341875,154.16965625,46.20710546875,154.16965625,45.563875C154.16965625,45.188875,154.32525390625,44.87572265625,154.636453125,44.624421875C154.94765234375,44.37312109375,155.35455078125,44.24746875,155.85715625,44.24746875C156.39361328125,44.24746875,156.82265234375,44.37376953125,157.144265625,44.626375C157.46587890625,44.87898046875,157.6266875,45.20710546875,157.6266875,45.61075C157.6266875,45.61075,156.49778125,45.61075,156.49778125,45.61075C156.49778125,45.44929296875,156.44569921875,45.315828125,156.34153125,45.210359375C156.23736328125,45.104890625,156.07460546875,45.05215625,155.85325,45.05215625C155.66314453125,45.05215625,155.51601171875,45.095125,155.41184375,45.1810625C155.30767578125,45.267,155.25559375,45.376375,155.25559375,45.5091875C155.25559375,45.6341875,155.31483984375,45.73509765625,155.433328125,45.811921875C155.55181640625,45.88874609375,155.7516875,45.95515234375,156.0329375,46.011140625C156.3141875,46.06712890625,156.55116796875,46.13028125,156.743875,46.20059375C157.34023046875,46.41934375,157.63840625,46.79825,157.63840625,47.3373125C157.63840625,47.72273046875,157.47304296875,48.034578125,157.1423125,48.272859375C156.81158203125,48.511140625,156.3845,48.63028125,155.8610625,48.63028125C155.50689453125,48.63028125,155.19244140625,48.56712890625,154.917703125,48.440828125C154.64296484375,48.31452734375,154.42746875,48.14134765625,154.27121875,47.921296875C154.11496875,47.70124609375,154.03684375,47.46361328125,154.03684375,47.20840625C154.03684375,47.20840625,155.10715625,47.20840625,155.10715625,47.20840625C155.11757421875,47.40892578125,155.19179296875,47.56257421875,155.3298125,47.66934375C155.46783203125,47.77611328125,155.65273046875,47.8295,155.8845,47.8295C156.10064453125,47.8295,156.26405859375,47.788484375,156.374734375,47.706453125C156.48541015625,47.624421875,156.54075,47.517,156.54075,47.3841875Z M159.4391875,48.55215625C159.4391875,48.55215625,158.306375,48.55215625,158.306375,48.55215625C158.306375,48.55215625,158.306375,44.32559375,158.306375,44.32559375C158.306375,44.32559375,159.4391875,44.32559375,159.4391875,44.32559375C159.4391875,44.32559375,159.4391875,48.55215625,159.4391875,48.55215625Z M158.23996875,43.23184375C158.23996875,43.06257421875,158.296609375,42.92325,158.409890625,42.813875C158.523171875,42.7045,158.67746875,42.6498125,158.87278125,42.6498125C159.06548828125,42.6498125,159.21913671875,42.7045,159.33371875,42.813875C159.44830078125,42.92325,159.50559375,43.06257421875,159.50559375,43.23184375C159.50559375,43.40371875,159.44765234375,43.54434375,159.331765625,43.65371875C159.21587890625,43.76309375,159.06288671875,43.81778125,158.87278125,43.81778125C158.68267578125,43.81778125,158.52968359375,43.76309375,158.413796875,43.65371875C158.29791015625,43.54434375,158.23996875,43.40371875,158.23996875,43.23184375Z M161.7204375,43.28653125C161.7204375,43.28653125,161.7204375,44.32559375,161.7204375,44.32559375C161.7204375,44.32559375,162.44309375,44.32559375,162.44309375,44.32559375C162.44309375,44.32559375,162.44309375,45.15371875,162.44309375,45.15371875C162.44309375,45.15371875,161.7204375,45.15371875,161.7204375,45.15371875C161.7204375,45.15371875,161.7204375,47.26309375,161.7204375,47.26309375C161.7204375,47.41934375,161.75038671875,47.53132421875,161.81028125,47.59903125C161.87017578125,47.66673828125,161.98476171875,47.70059375,162.15403125,47.70059375C162.27903125,47.70059375,162.38970703125,47.69148046875,162.4860625,47.67325C162.4860625,47.67325,162.4860625,48.52871875,162.4860625,48.52871875C162.26470703125,48.59642578125,162.03684375,48.63028125,161.80246875,48.63028125C161.01080078125,48.63028125,160.60715625,48.23054296875,160.59153125,47.4310625C160.59153125,47.4310625,160.59153125,45.15371875,160.59153125,45.15371875C160.59153125,45.15371875,159.97434375,45.15371875,159.97434375,45.15371875C159.97434375,45.15371875,159.97434375,44.32559375,159.97434375,44.32559375C159.97434375,44.32559375,160.59153125,44.32559375,160.59153125,44.32559375C160.59153125,44.32559375,160.59153125,43.28653125,160.59153125,43.28653125C160.59153125,43.28653125,161.7204375,43.28653125,161.7204375,43.28653125Z M164.8845,46.9545C164.8845,46.9545,165.66575,44.32559375,165.66575,44.32559375C165.66575,44.32559375,166.8766875,44.32559375,166.8766875,44.32559375C166.8766875,44.32559375,165.17746875,49.20840625,165.17746875,49.20840625C165.17746875,49.20840625,165.08371875,49.4310625,165.08371875,49.4310625C164.83111328125,49.98314453125,164.41444921875,50.2591875,163.83371875,50.2591875C163.66965625,50.2591875,163.50298828125,50.23444921875,163.33371875,50.18496875C163.33371875,50.18496875,163.33371875,49.3295,163.33371875,49.3295C163.33371875,49.3295,163.50559375,49.33340625,163.50559375,49.33340625C163.71913671875,49.33340625,163.878640625,49.30085546875,163.984109375,49.23575C164.089578125,49.17064453125,164.17226171875,49.06257421875,164.23215625,48.91153125C164.23215625,48.91153125,164.36496875,48.563875,164.36496875,48.563875C164.36496875,48.563875,162.8845,44.32559375,162.8845,44.32559375C162.8845,44.32559375,164.09934375,44.32559375,164.09934375,44.32559375C164.09934375,44.32559375,164.8845,46.9545,164.8845,46.9545Z M166.6423125,48.55215625Z M170.7048125,47.61075C170.7048125,47.61075,173.19309375,47.61075,173.19309375,47.61075C173.19309375,47.61075,173.19309375,48.55215625,173.19309375,48.55215625C173.19309375,48.55215625,169.5329375,48.55215625,169.5329375,48.55215625C169.5329375,48.55215625,169.5329375,42.86465625,169.5329375,42.86465625C169.5329375,42.86465625,170.7048125,42.86465625,170.7048125,42.86465625C170.7048125,42.86465625,170.7048125,47.61075,170.7048125,47.61075Z M174.98215625,48.55215625C174.98215625,48.55215625,173.84934375,48.55215625,173.84934375,48.55215625C173.84934375,48.55215625,173.84934375,44.32559375,173.84934375,44.32559375C173.84934375,44.32559375,174.98215625,44.32559375,174.98215625,44.32559375C174.98215625,44.32559375,174.98215625,48.55215625,174.98215625,48.55215625Z M173.7829375,43.23184375C173.7829375,43.06257421875,173.839578125,42.92325,173.952859375,42.813875C174.066140625,42.7045,174.2204375,42.6498125,174.41575,42.6498125C174.60845703125,42.6498125,174.76210546875,42.7045,174.8766875,42.813875C174.99126953125,42.92325,175.0485625,43.06257421875,175.0485625,43.23184375C175.0485625,43.40371875,174.99062109375,43.54434375,174.874734375,43.65371875C174.75884765625,43.76309375,174.60585546875,43.81778125,174.41575,43.81778125C174.22564453125,43.81778125,174.07265234375,43.76309375,173.956765625,43.65371875C173.84087890625,43.54434375,173.7829375,43.40371875,173.7829375,43.23184375Z M179.7204375,46.4779375C179.7204375,47.15501953125,179.57590625,47.683015625,179.28684375,48.061921875C178.99778125,48.440828125,178.59413671875,48.63028125,178.07590625,48.63028125C177.61757421875,48.63028125,177.2516875,48.4545,176.97825,48.1029375C176.97825,48.1029375,176.92746875,48.55215625,176.92746875,48.55215625C176.92746875,48.55215625,175.91184375,48.55215625,175.91184375,48.55215625C175.91184375,48.55215625,175.91184375,42.55215625,175.91184375,42.55215625C175.91184375,42.55215625,177.04075,42.55215625,177.04075,42.55215625C177.04075,42.55215625,177.04075,44.7045,177.04075,44.7045C177.30116796875,44.3998125,177.64361328125,44.24746875,178.06809375,44.24746875C178.58371875,44.24746875,178.988015625,44.436921875,179.280984375,44.815828125C179.573953125,45.194734375,179.7204375,45.7279375,179.7204375,46.4154375C179.7204375,46.4154375,179.7204375,46.4779375,179.7204375,46.4779375Z M178.59153125,46.39590625C178.59153125,45.96882421875,178.52382421875,45.65697265625,178.38840625,45.460359375C178.25298828125,45.26374609375,178.05116796875,45.1654375,177.7829375,45.1654375C177.4235625,45.1654375,177.17616796875,45.31257421875,177.04075,45.60684375C177.04075,45.60684375,177.04075,47.2748125,177.04075,47.2748125C177.17876953125,47.5716875,177.42876953125,47.720125,177.79075,47.720125C178.15533203125,47.720125,178.39491796875,47.5404375,178.5095,47.1810625C178.5641875,47.0091875,178.59153125,46.74746875,178.59153125,46.39590625Z M182.79075,45.3841875C182.63710546875,45.36335546875,182.5016875,45.3529375,182.3845,45.3529375C181.95741796875,45.3529375,181.67746875,45.49746875,181.54465625,45.78653125C181.54465625,45.78653125,181.54465625,48.55215625,181.54465625,48.55215625C181.54465625,48.55215625,180.41575,48.55215625,180.41575,48.55215625C180.41575,48.55215625,180.41575,44.32559375,180.41575,44.32559375C180.41575,44.32559375,181.48215625,44.32559375,181.48215625,44.32559375C181.48215625,44.32559375,181.51340625,44.8295,181.51340625,44.8295C181.73996875,44.44148046875,182.05376953125,44.24746875,182.4548125,44.24746875C182.5798125,44.24746875,182.697,44.26439453125,182.806375,44.29825C182.806375,44.29825,182.79075,45.3841875,182.79075,45.3841875Z M185.806375,48.55215625C185.75429296875,48.45059375,185.71653125,48.32429296875,185.69309375,48.17325C185.41965625,48.4779375,185.0641875,48.63028125,184.6266875,48.63028125C184.212625,48.63028125,183.86952734375,48.51048828125,183.597390625,48.27090625C183.32525390625,48.03132421875,183.1891875,47.72923828125,183.1891875,47.36465625C183.1891875,46.91673828125,183.355203125,46.57298828125,183.687234375,46.33340625C184.019265625,46.09382421875,184.49908203125,45.97273046875,185.1266875,45.970125C185.1266875,45.970125,185.64621875,45.970125,185.64621875,45.970125C185.64621875,45.970125,185.64621875,45.7279375,185.64621875,45.7279375C185.64621875,45.532625,185.59608984375,45.376375,185.495828125,45.2591875C185.39556640625,45.142,185.23736328125,45.08340625,185.02121875,45.08340625C184.83111328125,45.08340625,184.68202734375,45.12898046875,184.573953125,45.220125C184.46587890625,45.31126953125,184.41184375,45.43626953125,184.41184375,45.595125C184.41184375,45.595125,183.2829375,45.595125,183.2829375,45.595125C183.2829375,45.35033203125,183.35845703125,45.12376953125,183.5095,44.9154375C183.66054296875,44.70710546875,183.87408203125,44.54369140625,184.150125,44.425203125C184.42616796875,44.30671484375,184.7360625,44.24746875,185.0798125,44.24746875C185.60064453125,44.24746875,186.01405859375,44.378328125,186.320046875,44.640046875C186.62603515625,44.901765625,186.77903125,45.26960546875,186.77903125,45.7435625C186.77903125,45.7435625,186.77903125,47.57559375,186.77903125,47.57559375C186.78163671875,47.97663671875,186.837625,48.28001953125,186.947,48.48575C186.947,48.48575,186.947,48.55215625,186.947,48.55215625C186.947,48.55215625,185.806375,48.55215625,185.806375,48.55215625Z M184.87278125,47.767C185.03944921875,47.767,185.19309375,47.729890625,185.33371875,47.655671875C185.47434375,47.581453125,185.57851171875,47.48184375,185.64621875,47.35684375C185.64621875,47.35684375,185.64621875,46.63028125,185.64621875,46.63028125C185.64621875,46.63028125,185.22434375,46.63028125,185.22434375,46.63028125C184.65923828125,46.63028125,184.35845703125,46.82559375,184.322,47.21621875C184.322,47.21621875,184.31809375,47.282625,184.31809375,47.282625C184.31809375,47.42325,184.36757421875,47.53913671875,184.46653125,47.63028125C184.56548828125,47.72142578125,184.70090625,47.767,184.87278125,47.767Z M190.02903125,45.3841875C189.87538671875,45.36335546875,189.73996875,45.3529375,189.62278125,45.3529375C189.19569921875,45.3529375,188.91575,45.49746875,188.7829375,45.78653125C188.7829375,45.78653125,188.7829375,48.55215625,188.7829375,48.55215625C188.7829375,48.55215625,187.65403125,48.55215625,187.65403125,48.55215625C187.65403125,48.55215625,187.65403125,44.32559375,187.65403125,44.32559375C187.65403125,44.32559375,188.7204375,44.32559375,188.7204375,44.32559375C188.7204375,44.32559375,188.7516875,44.8295,188.7516875,44.8295C188.97825,44.44148046875,189.29205078125,44.24746875,189.69309375,44.24746875C189.81809375,44.24746875,189.93528125,44.26439453125,190.04465625,44.29825C190.04465625,44.29825,190.02903125,45.3841875,190.02903125,45.3841875Z M191.90403125,48.55215625C191.90403125,48.55215625,190.77121875,48.55215625,190.77121875,48.55215625C190.77121875,48.55215625,190.77121875,44.32559375,190.77121875,44.32559375C190.77121875,44.32559375,191.90403125,44.32559375,191.90403125,44.32559375C191.90403125,44.32559375,191.90403125,48.55215625,191.90403125,48.55215625Z M190.7048125,43.23184375C190.7048125,43.06257421875,190.761453125,42.92325,190.874734375,42.813875C190.988015625,42.7045,191.1423125,42.6498125,191.337625,42.6498125C191.53033203125,42.6498125,191.68398046875,42.7045,191.7985625,42.813875C191.91314453125,42.92325,191.9704375,43.06257421875,191.9704375,43.23184375C191.9704375,43.40371875,191.91249609375,43.54434375,191.796609375,43.65371875C191.68072265625,43.76309375,191.52773046875,43.81778125,191.337625,43.81778125C191.14751953125,43.81778125,190.99452734375,43.76309375,190.878640625,43.65371875C190.76275390625,43.54434375,190.7048125,43.40371875,190.7048125,43.23184375Z M194.77903125,48.63028125C194.15923828125,48.63028125,193.65468359375,48.44017578125,193.265359375,48.05996875C192.87603515625,47.67976171875,192.681375,47.17325,192.681375,46.5404375C192.681375,46.5404375,192.681375,46.4310625,192.681375,46.4310625C192.681375,46.00658203125,192.76340625,45.62702734375,192.92746875,45.292390625C193.09153125,44.95775390625,193.323953125,44.69994140625,193.624734375,44.518953125C193.925515625,44.33796484375,194.26861328125,44.24746875,194.65403125,44.24746875C195.23215625,44.24746875,195.687234375,44.42976171875,196.019265625,44.79434375C196.351296875,45.15892578125,196.5173125,45.67585546875,196.5173125,46.345125C196.5173125,46.345125,196.5173125,46.8060625,196.5173125,46.8060625C196.5173125,46.8060625,193.82590625,46.8060625,193.82590625,46.8060625C193.86236328125,47.08210546875,193.972390625,47.30345703125,194.155984375,47.470125C194.339578125,47.63679296875,194.572,47.720125,194.85325,47.720125C195.28814453125,47.720125,195.62798828125,47.56257421875,195.87278125,47.24746875C195.87278125,47.24746875,196.42746875,47.8685625,196.42746875,47.8685625C196.25819921875,48.10814453125,196.02903125,48.29499609375,195.73996875,48.429109375C195.45090625,48.56322265625,195.13059375,48.63028125,194.77903125,48.63028125Z M194.650125,45.16153125C194.42616796875,45.16153125,194.24452734375,45.23705078125,194.105203125,45.38809375C193.96587890625,45.53913671875,193.8766875,45.75528125,193.837625,46.03653125C193.837625,46.03653125,195.4079375,46.03653125,195.4079375,46.03653125C195.4079375,46.03653125,195.4079375,45.9466875,195.4079375,45.9466875C195.40273046875,45.6966875,195.33501953125,45.503328125,195.2048125,45.366609375C195.07460546875,45.229890625,194.88970703125,45.16153125,194.650125,45.16153125Z M199.447,47.3841875C199.447,47.24616796875,199.378640625,47.13744140625,199.241921875,47.058015625C199.105203125,46.97858984375,198.88580078125,46.907625,198.58371875,46.845125C197.57851171875,46.6341875,197.07590625,46.20710546875,197.07590625,45.563875C197.07590625,45.188875,197.23150390625,44.87572265625,197.542703125,44.624421875C197.85390234375,44.37312109375,198.26080078125,44.24746875,198.76340625,44.24746875C199.29986328125,44.24746875,199.72890234375,44.37376953125,200.050515625,44.626375C200.37212890625,44.87898046875,200.5329375,45.20710546875,200.5329375,45.61075C200.5329375,45.61075,199.40403125,45.61075,199.40403125,45.61075C199.40403125,45.44929296875,199.35194921875,45.315828125,199.24778125,45.210359375C199.14361328125,45.104890625,198.98085546875,45.05215625,198.7595,45.05215625C198.56939453125,45.05215625,198.42226171875,45.095125,198.31809375,45.1810625C198.21392578125,45.267,198.16184375,45.376375,198.16184375,45.5091875C198.16184375,45.6341875,198.22108984375,45.73509765625,198.339578125,45.811921875C198.45806640625,45.88874609375,198.6579375,45.95515234375,198.9391875,46.011140625C199.2204375,46.06712890625,199.45741796875,46.13028125,199.650125,46.20059375C200.24648046875,46.41934375,200.54465625,46.79825,200.54465625,47.3373125C200.54465625,47.72273046875,200.37929296875,48.034578125,200.0485625,48.272859375C199.71783203125,48.511140625,199.29075,48.63028125,198.7673125,48.63028125C198.41314453125,48.63028125,198.09869140625,48.56712890625,197.823953125,48.440828125C197.54921484375,48.31452734375,197.33371875,48.14134765625,197.17746875,47.921296875C197.02121875,47.70124609375,196.94309375,47.46361328125,196.94309375,47.20840625C196.94309375,47.20840625,198.01340625,47.20840625,198.01340625,47.20840625C198.02382421875,47.40892578125,198.09804296875,47.56257421875,198.2360625,47.66934375C198.37408203125,47.77611328125,198.55898046875,47.8295,198.79075,47.8295C199.00689453125,47.8295,199.17030859375,47.788484375,199.280984375,47.706453125C199.39166015625,47.624421875,199.447,47.517,199.447,47.3841875Z"/><path fill="#000000" d="M131.8444609375,53.77765625C131.8444609375,53.77765625,133.2389921875,57.258125,133.2389921875,57.258125C133.2389921875,57.258125,134.6335234375,53.77765625,134.6335234375,53.77765625C134.6335234375,53.77765625,135.363015625,53.77765625,135.363015625,53.77765625C135.363015625,53.77765625,135.363015625,58.04328125,135.363015625,58.04328125C135.363015625,58.04328125,134.800515625,58.04328125,134.800515625,58.04328125C134.800515625,58.04328125,134.800515625,56.3821484375,134.800515625,56.3821484375C134.800515625,56.3821484375,134.85325,54.5891796875,134.85325,54.5891796875C134.85325,54.5891796875,133.452859375,58.04328125,133.452859375,58.04328125C133.452859375,58.04328125,133.0221953125,58.04328125,133.0221953125,58.04328125C133.0221953125,58.04328125,131.624734375,54.59796875,131.624734375,54.59796875C131.624734375,54.59796875,131.6803984375,56.3821484375,131.6803984375,56.3821484375C131.6803984375,56.3821484375,131.6803984375,58.04328125,131.6803984375,58.04328125C131.6803984375,58.04328125,131.1178984375,58.04328125,131.1178984375,58.04328125C131.1178984375,58.04328125,131.1178984375,53.77765625,131.1178984375,53.77765625C131.1178984375,53.77765625,131.8444609375,53.77765625,131.8444609375,53.77765625Z M138.22825,58.04328125C138.19699902344,57.980782226562,138.17161035156,57.869454101562,138.152078125,57.709296875C137.900125,57.971014648437,137.59934277344,58.101875,137.249734375,58.101875C136.93723339844,58.101875,136.68088574219,58.013495117187,136.48069140625,57.83673828125C136.28049707031,57.659981445312,136.1803984375,57.435860351562,136.1803984375,57.164375C136.1803984375,56.834295898437,136.30588574219,56.577948242187,136.55686328125,56.39533203125C136.80784082031,56.212715820312,137.16086816406,56.12140625,137.6159453125,56.12140625C137.6159453125,56.12140625,138.1432890625,56.12140625,138.1432890625,56.12140625C138.1432890625,56.12140625,138.1432890625,55.8723828125,138.1432890625,55.8723828125C138.1432890625,55.682928710937,138.08664941406,55.532049804687,137.9733671875,55.41974609375C137.86008496094,55.307442382812,137.69309277344,55.2512890625,137.472390625,55.2512890625C137.27903125,55.2512890625,137.11692285156,55.300118164062,136.9860625,55.3977734375C136.85520214844,55.495428710937,136.7897734375,55.613594726562,136.7897734375,55.752265625C136.7897734375,55.752265625,136.2448515625,55.752265625,136.2448515625,55.752265625C136.2448515625,55.5940625,136.30100488281,55.441229492187,136.41330859375,55.29376953125C136.52561230469,55.146309570312,136.67795605469,55.029608398437,136.87033984375,54.943671875C137.06272363281,54.857735351562,137.27414746094,54.814765625,137.5046171875,54.814765625C137.86985253906,54.814765625,138.15598339844,54.906075195312,138.363015625,55.08869140625C138.57004785156,55.271307617187,138.67746777344,55.522774414062,138.68528125,55.8430859375C138.68528125,55.8430859375,138.68528125,57.3020703125,138.68528125,57.3020703125C138.68528125,57.593084960937,138.72239160156,57.824530273437,138.796609375,57.99640625C138.796609375,57.99640625,138.796609375,58.04328125,138.796609375,58.04328125C138.796609375,58.04328125,138.22825,58.04328125,138.22825,58.04328125Z M137.3288359375,57.6301953125C137.4987578125,57.6301953125,137.659890625,57.58625,137.812234375,57.498359375C137.964578125,57.41046875,138.07493066406,57.2962109375,138.1432890625,57.1555859375C138.1432890625,57.1555859375,138.1432890625,56.5051953125,138.1432890625,56.5051953125C138.1432890625,56.5051953125,137.718484375,56.5051953125,137.718484375,56.5051953125C137.05442089844,56.5051953125,136.722390625,56.699530273437,136.722390625,57.088203125C136.722390625,57.258125,136.77903027344,57.390936523437,136.8923125,57.486640625C137.00559472656,57.582344726562,137.15110058594,57.6301953125,137.3288359375,57.6301953125Z M140.1237578125,58.04328125C140.1237578125,58.04328125,139.581765625,58.04328125,139.581765625,58.04328125C139.581765625,58.04328125,139.581765625,54.873359375,139.581765625,54.873359375C139.581765625,54.873359375,140.1237578125,54.873359375,140.1237578125,54.873359375C140.1237578125,54.873359375,140.1237578125,58.04328125,140.1237578125,58.04328125Z M139.5378203125,54.0325390625C139.5378203125,53.9446484375,139.56467675781,53.870430664062,139.61838671875,53.8098828125C139.67209667969,53.749334960937,139.7516875,53.7190625,139.85715625,53.7190625C139.962625,53.7190625,140.04270214844,53.749334960937,140.097390625,53.8098828125C140.15207910156,53.870430664062,140.179421875,53.9446484375,140.179421875,54.0325390625C140.179421875,54.1204296875,140.15207910156,54.193671875,140.097390625,54.252265625C140.04270214844,54.310859375,139.962625,54.34015625,139.85715625,54.34015625C139.7516875,54.34015625,139.67209667969,54.310859375,139.61838671875,54.252265625C139.56467675781,54.193671875,139.5378203125,54.1204296875,139.5378203125,54.0325390625Z M141.503640625,54.873359375C141.503640625,54.873359375,141.52121875,55.271796875,141.52121875,55.271796875C141.76340722656,54.967109375,142.07981347656,54.814765625,142.4704375,54.814765625C143.14036035156,54.814765625,143.47825,55.1926953125,143.484109375,55.9485546875C143.484109375,55.9485546875,143.484109375,58.04328125,143.484109375,58.04328125C143.484109375,58.04328125,142.9421171875,58.04328125,142.9421171875,58.04328125C142.9421171875,58.04328125,142.9421171875,55.945625,142.9421171875,55.945625C142.94016308594,55.717109375,142.88791796875,55.548163085937,142.78537890625,55.4387890625C142.68283984375,55.329415039062,142.523171875,55.2747265625,142.306375,55.2747265625C142.13059375,55.2747265625,141.97629589844,55.3216015625,141.843484375,55.4153515625C141.71067285156,55.5091015625,141.60715527344,55.6321484375,141.5329375,55.7844921875C141.5329375,55.7844921875,141.5329375,58.04328125,141.5329375,58.04328125C141.5329375,58.04328125,140.9909453125,58.04328125,140.9909453125,58.04328125C140.9909453125,58.04328125,140.9909453125,54.873359375,140.9909453125,54.873359375C140.9909453125,54.873359375,141.503640625,54.873359375,141.503640625,54.873359375Z M143.7155546875,58.04328125Z M146.437234375,57.5833203125C146.437234375,57.5833203125,148.45871875,57.5833203125,148.45871875,57.5833203125C148.45871875,57.5833203125,148.45871875,58.04328125,148.45871875,58.04328125C148.45871875,58.04328125,145.8718046875,58.04328125,145.8718046875,58.04328125C145.8718046875,58.04328125,145.8718046875,53.77765625,145.8718046875,53.77765625C145.8718046875,53.77765625,146.437234375,53.77765625,146.437234375,53.77765625C146.437234375,53.77765625,146.437234375,57.5833203125,146.437234375,57.5833203125Z M149.6042265625,58.04328125C149.6042265625,58.04328125,149.062234375,58.04328125,149.062234375,58.04328125C149.062234375,58.04328125,149.062234375,54.873359375,149.062234375,54.873359375C149.062234375,54.873359375,149.6042265625,54.873359375,149.6042265625,54.873359375C149.6042265625,54.873359375,149.6042265625,58.04328125,149.6042265625,58.04328125Z M149.0182890625,54.0325390625C149.0182890625,53.9446484375,149.04514550781,53.870430664062,149.09885546875,53.8098828125C149.15256542969,53.749334960937,149.23215625,53.7190625,149.337625,53.7190625C149.44309375,53.7190625,149.52317089844,53.749334960937,149.577859375,53.8098828125C149.63254785156,53.870430664062,149.659890625,53.9446484375,149.659890625,54.0325390625C149.659890625,54.1204296875,149.63254785156,54.193671875,149.577859375,54.252265625C149.52317089844,54.310859375,149.44309375,54.34015625,149.337625,54.34015625C149.23215625,54.34015625,149.15256542969,54.310859375,149.09885546875,54.252265625C149.04514550781,54.193671875,149.0182890625,54.1204296875,149.0182890625,54.0325390625Z M153.1550078125,56.4934765625C153.1550078125,56.977850585937,153.0436796875,57.367012695312,152.8210234375,57.66095703125C152.5983671875,57.954901367187,152.2995390625,58.101875,151.9245390625,58.101875C151.52414746094,58.101875,151.21457910156,57.960274414062,150.995828125,57.6770703125C150.995828125,57.6770703125,150.9694609375,58.04328125,150.9694609375,58.04328125C150.9694609375,58.04328125,150.4714140625,58.04328125,150.4714140625,58.04328125C150.4714140625,58.04328125,150.4714140625,53.54328125,150.4714140625,53.54328125C150.4714140625,53.54328125,151.01340625,53.54328125,151.01340625,53.54328125C151.01340625,53.54328125,151.01340625,55.2219921875,151.01340625,55.2219921875C151.23215722656,54.950506835937,151.53391503906,54.814765625,151.9186796875,54.814765625C152.30344433594,54.814765625,152.60569140625,54.960274414062,152.82541796875,55.2512890625C153.04514453125,55.542303710937,153.1550078125,55.940741210937,153.1550078125,56.4466015625C153.1550078125,56.4466015625,153.1550078125,56.4934765625,153.1550078125,56.4934765625Z M152.613015625,56.431953125C152.613015625,56.0628125,152.54172753906,55.777657226562,152.3991484375,55.576484375C152.25656933594,55.375311523437,152.05149121094,55.2747265625,151.7839140625,55.2747265625C151.4264921875,55.2747265625,151.16965527344,55.440743164062,151.01340625,55.7727734375C151.01340625,55.7727734375,151.01340625,57.1438671875,151.01340625,57.1438671875C151.17942285156,57.475897460937,151.4382109375,57.6419140625,151.7897734375,57.6419140625C152.04954003906,57.6419140625,152.25168847656,57.541329101562,152.39621875,57.34015625C152.54074902344,57.138983398437,152.613015625,56.83625,152.613015625,56.431953125Z M155.3698515625,55.3596875C155.2878203125,55.346014648437,155.19895410156,55.3391796875,155.10325,55.3391796875C154.74778222656,55.3391796875,154.50656933594,55.490547851562,154.3796171875,55.79328125C154.3796171875,55.79328125,154.3796171875,58.04328125,154.3796171875,58.04328125C154.3796171875,58.04328125,153.837625,58.04328125,153.837625,58.04328125C153.837625,58.04328125,153.837625,54.873359375,153.837625,54.873359375C153.837625,54.873359375,154.36496875,54.873359375,154.36496875,54.873359375C154.36496875,54.873359375,154.3737578125,55.2395703125,154.3737578125,55.2395703125C154.55149316406,54.956366210937,154.80344628906,54.814765625,155.1296171875,54.814765625C155.2350859375,54.814765625,155.31516308594,54.828438476562,155.3698515625,54.85578125C155.3698515625,54.85578125,155.3698515625,55.3596875,155.3698515625,55.3596875Z M157.7956328125,58.04328125C157.76438183594,57.980782226562,157.73899316406,57.869454101562,157.7194609375,57.709296875C157.4675078125,57.971014648437,157.16672558594,58.101875,156.8171171875,58.101875C156.50461621094,58.101875,156.24826855469,58.013495117187,156.04807421875,57.83673828125C155.84787988281,57.659981445312,155.74778125,57.435860351562,155.74778125,57.164375C155.74778125,56.834295898437,155.87326855469,56.577948242187,156.12424609375,56.39533203125C156.37522363281,56.212715820312,156.72825097656,56.12140625,157.183328125,56.12140625C157.183328125,56.12140625,157.710671875,56.12140625,157.710671875,56.12140625C157.710671875,56.12140625,157.710671875,55.8723828125,157.710671875,55.8723828125C157.710671875,55.682928710937,157.65403222656,55.532049804687,157.54075,55.41974609375C157.42746777344,55.307442382812,157.26047558594,55.2512890625,157.0397734375,55.2512890625C156.8464140625,55.2512890625,156.68430566406,55.300118164062,156.5534453125,55.3977734375C156.42258496094,55.495428710937,156.35715625,55.613594726562,156.35715625,55.752265625C156.35715625,55.752265625,155.812234375,55.752265625,155.812234375,55.752265625C155.812234375,55.5940625,155.86838769531,55.441229492187,155.98069140625,55.29376953125C156.09299511719,55.146309570312,156.24533886719,55.029608398437,156.43772265625,54.943671875C156.63010644531,54.857735351562,156.84153027344,54.814765625,157.072,54.814765625C157.43723535156,54.814765625,157.72336621094,54.906075195312,157.9303984375,55.08869140625C158.13743066406,55.271307617187,158.24485058594,55.522774414062,158.2526640625,55.8430859375C158.2526640625,55.8430859375,158.2526640625,57.3020703125,158.2526640625,57.3020703125C158.2526640625,57.593084960937,158.28977441406,57.824530273437,158.3639921875,57.99640625C158.3639921875,57.99640625,158.3639921875,58.04328125,158.3639921875,58.04328125C158.3639921875,58.04328125,157.7956328125,58.04328125,157.7956328125,58.04328125Z M156.89621875,57.6301953125C157.066140625,57.6301953125,157.2272734375,57.58625,157.3796171875,57.498359375C157.5319609375,57.41046875,157.64231347656,57.2962109375,157.710671875,57.1555859375C157.710671875,57.1555859375,157.710671875,56.5051953125,157.710671875,56.5051953125C157.710671875,56.5051953125,157.2858671875,56.5051953125,157.2858671875,56.5051953125C156.62180371094,56.5051953125,156.2897734375,56.699530273437,156.2897734375,57.088203125C156.2897734375,57.258125,156.34641308594,57.390936523437,156.4596953125,57.486640625C156.57297753906,57.582344726562,156.71848339844,57.6301953125,156.89621875,57.6301953125Z M160.5173125,55.3596875C160.43528125,55.346014648437,160.34641503906,55.3391796875,160.2507109375,55.3391796875C159.89524316406,55.3391796875,159.65403027344,55.490547851562,159.527078125,55.79328125C159.527078125,55.79328125,159.527078125,58.04328125,159.527078125,58.04328125C159.527078125,58.04328125,158.9850859375,58.04328125,158.9850859375,58.04328125C158.9850859375,58.04328125,158.9850859375,54.873359375,158.9850859375,54.873359375C158.9850859375,54.873359375,159.5124296875,54.873359375,159.5124296875,54.873359375C159.5124296875,54.873359375,159.52121875,55.2395703125,159.52121875,55.2395703125C159.69895410156,54.956366210937,159.95090722656,54.814765625,160.277078125,54.814765625C160.382546875,54.814765625,160.46262402344,54.828438476562,160.5173125,54.85578125C160.5173125,54.85578125,160.5173125,55.3596875,160.5173125,55.3596875Z M162.316140625,57.2493359375C162.316140625,57.2493359375,163.054421875,54.873359375,163.054421875,54.873359375C163.054421875,54.873359375,163.6345,54.873359375,163.6345,54.873359375C163.6345,54.873359375,162.3600859375,58.5325390625,162.3600859375,58.5325390625C162.16282128906,59.0598828125,161.84934472656,59.3235546875,161.41965625,59.3235546875C161.41965625,59.3235546875,161.3171171875,59.314765625,161.3171171875,59.314765625C161.3171171875,59.314765625,161.11496875,59.2766796875,161.11496875,59.2766796875C161.11496875,59.2766796875,161.11496875,58.8372265625,161.11496875,58.8372265625C161.11496875,58.8372265625,161.261453125,58.8489453125,161.261453125,58.8489453125C161.44504785156,58.8489453125,161.58811328125,58.811834960937,161.69065234375,58.7376171875C161.79319140625,58.663399414062,161.87766308594,58.527655273437,161.9440703125,58.330390625C161.9440703125,58.330390625,162.0641875,58.008125,162.0641875,58.008125C162.0641875,58.008125,160.933328125,54.873359375,160.933328125,54.873359375C160.933328125,54.873359375,161.525125,54.873359375,161.525125,54.873359375C161.525125,54.873359375,162.316140625,57.2493359375,162.316140625,57.2493359375Z"/><rect x="124.625" y="35.733" width="0.733" height="29.48" style="fill:#000000"/></svg>
